<?xml version="1.0" encoding="UTF-8" standalone="no"?>
<svg
   width="260"
   height="260"
   viewBox="0 0 260 260"
   version="1.1"
   xml:space="preserve"
   style="clip-rule:evenodd;fill-rule:evenodd;stroke-linejoin:round;stroke-miterlimit:2"
   id="svg10"
   sodipodi:docname="divisibillfg.svg"
   inkscape:version="1.1 (c68e22c387, 2021-05-23)"
   xmlns:inkscape="http://www.inkscape.org/namespaces/inkscape"
   xmlns:sodipodi="http://sodipodi.sourceforge.net/DTD/sodipodi-0.dtd"
   xmlns="http://www.w3.org/2000/svg"
   xmlns:svg="http://www.w3.org/2000/svg"><defs
   id="defs6" />
	<sodipodi:namedview
   id="namedview5"
   pagecolor="#505050"
   bordercolor="#ffffff"
   borderopacity="1"
   inkscape:pageshadow="0"
   inkscape:pageopacity="0"
   inkscape:pagecheckerboard="1"
   showgrid="false"
   inkscape:zoom="1.6513158"
   inkscape:cx="228.60558"
   inkscape:cy="228"
   inkscape:window-width="2560"
   inkscape:window-height="1537"
   inkscape:window-x="1192"
   inkscape:window-y="-8"
   inkscape:window-maximized="1"
   inkscape:current-layer="svg10" />
<path
   id="rect142"
   style="fill:#ffffff;fill-rule:evenodd;stroke:none;stroke-width:0.389849"
   d="m 30,30 v 200 h 76.36194 L 54.163017,143.9233 88.540457,30 Z M 112.98843,30 79.579417,140.7107 133.72659,230 h 96.02196 c -5.29494,-7.6215 -11.61938,-16.83019 -18.56665,-26.8361 -18.26758,-26.31022 -40.83477,-58.04125 -58.48102,-78.49262 l -4.8611,-5.63385 27.08654,-60.241213 c -0.33913,-0.93608 -0.47722,-1.255188 -0.94709,-2.556686 -1.36846,-3.79072 -3.131,-8.747897 -4.99976,-14.124182 C 167.61378,38.186389 166.21566,34.075509 164.85211,30 Z m 76.57682,0 c 0.51136,1.491406 1.02587,3.007794 1.52765,4.451383 1.83469,5.278217 3.56871,10.158286 4.90453,13.858606 1.33585,3.70032 2.5461,6.863474 2.38179,6.465542 l 1.92083,4.653018 -25.1002,55.824081 C 193.00587,136.69522 213.18306,165.03931 230,189.24896 V 30 Z" /><path
   id="path1346"
   style="color:#000000;fill:#000000;stroke-width:1.47345"
   d="m 140.19459,44.609646 -31.75181,0.453508 -5.89733,19.54344 37.92573,-0.541771 a 9.7414223,9.7285248 0 0 0 9.60333,-9.864549 9.7414223,9.7285248 0 0 0 -9.87992,-9.590628 z m 71.04827,0.29296 -16.37003,0.111085 c 0.39312,1.100115 0.82518,2.318949 1.17032,3.274995 1.33584,3.70032 2.54534,6.862697 2.38102,6.464777 l 1.92082,4.653771 -2.01377,4.478766 13.04192,-0.08823 a 9.4597347,9.4472106 0 0 0 9.39609,-9.51377 9.4597347,9.4472106 0 0 0 -9.52637,-9.381371 z M 83.889634,45.413177 45.742194,45.958 a 9.7414223,9.7285248 0 0 0 -9.601063,9.867589 9.7414223,9.7285248 0 0 0 9.877646,9.588354 l 31.972777,-0.45656 z m 86.304356,0.01029 a 9.4597347,9.4472106 0 0 0 -7.27565,9.254297 9.4597347,9.4472106 0 0 0 9.52334,9.383657 l 0.15314,-5.37e-4 2.37721,-5.286869 c -0.33912,-0.936091 -0.478,-1.255188 -0.94784,-2.556697 -1.07089,-2.966423 -2.41476,-6.75688 -3.8302,-10.793634 z m -29.9994,35.841577 -42.861481,0.611771 -5.897338,19.543455 49.035409,-0.70005 a 9.7414223,9.7285248 0 0 0 9.60333,-9.864547 9.7414223,9.7285248 0 0 0 -9.87992,-9.590629 z m 71.04827,0.292949 -20.92102,0.142297 -8.52216,18.95373 29.57346,-0.20088 a 9.4597347,9.4472106 0 0 0 9.39609,-9.513765 9.4597347,9.4472106 0 0 0 -9.52637,-9.381382 z M 72.779977,82.2276 45.742194,82.613394 a 9.7414223,9.7285248 0 0 0 -9.601063,9.867589 9.7414223,9.7285248 0 0 0 9.877646,9.588347 l 20.863863,-0.29828 z m 67.414613,35.69245 -53.970396,0.7708 -5.898091,19.54421 60.145077,-0.85907 a 9.7414223,9.7285248 0 0 0 9.60333,-9.86456 9.7414223,9.7285248 0 0 0 -9.87992,-9.59138 z m 71.04827,0.29371 -33.36179,0.22675 c 4.80311,5.88693 9.7502,12.21303 14.74255,18.79547 l 18.74952,-0.12741 a 9.4597347,9.4472106 0 0 0 9.39609,-9.513 9.4597347,9.4472106 0 0 0 -9.52637,-9.38138 z m -149.571797,0.82787 -15.928869,0.22752 a 9.7414223,9.7285248 0 0 0 -9.601063,9.86759 9.7414223,9.7285248 0 0 0 9.877646,9.58836 l 9.75496,-0.13925 z m 78.523527,35.53416 -51.758533,0.73963 11.699413,19.29234 40.33571,-0.57602 a 9.7414223,9.7285248 0 0 0 9.60333,-9.86455 9.7414223,9.7285248 0 0 0 -9.87992,-9.5914 z m 71.04827,0.29372 -5.52856,0.0373 c 4.00043,5.50101 7.9693,11.02918 11.84265,16.49977 a 9.4597347,9.4472106 0 0 0 3.21228,-7.15567 9.4597347,9.4472106 0 0 0 -9.52637,-9.38138 z m -34.38125,0.23361 -4.54642,0.0312 a 9.4597347,9.4472106 0 0 0 -9.39685,9.50997 9.4597347,9.4472106 0 0 0 9.52334,9.38441 l 18.17045,-0.12327 c -4.57,-6.36088 -9.1815,-12.68654 -13.75052,-18.80231 z m -115.554753,0.5996 -15.564663,0.22219 a 9.7414223,9.7285248 0 0 0 -9.601063,9.86684 9.7414223,9.7285248 0 0 0 9.877646,9.58834 l 26.986732,-0.38502 z m 78.887733,35.52885 -29.72052,0.42458 11.6994,19.29235 18.29771,-0.26099 a 9.7414223,9.7285248 0 0 0 9.60333,-9.86456 9.7414223,9.7285248 0 0 0 -9.87992,-9.59138 z m 62.96039,0.34849 -30.83979,0.20924 a 9.4597347,9.4472106 0 0 0 -9.39685,9.51075 9.4597347,9.4472106 0 0 0 9.52334,9.38441 l 38.93146,-0.2648 a 9.4597347,9.4472106 0 0 0 4.18756,-1.01201 c -1.48223,-2.14262 -2.78567,-4.03674 -4.33309,-6.26542 -2.60704,-3.75484 -5.31722,-7.63506 -8.07263,-11.56217 z m -119.810111,0.46339 -37.602675,0.53722 a 9.7414223,9.7285248 0 0 0 -9.601063,9.86684 9.7414223,9.7285248 0 0 0 9.877646,9.58834 l 49.025497,-0.70004 z" /></svg>
